<svg width="15" height="10" viewBox="0 0 15 10" fill="none" xmlns="http://www.w3.org/2000/svg">
<path d="M1.22343 0.50201C0.825004 0.50201 0.502013 0.783913 0.502013 1.13166V8.86835C0.502013 9.21609 0.825004 9.498 1.22343 9.498L9.20031 9.49803C9.59874 9.49803 9.92173 9.21613 9.92173 8.86838V1.13169C9.92173 0.783947 9.59874 0.502044 9.20031 0.502044L1.22343 0.50201Z" stroke="#2260FF"/>
<path d="M9.92173 2.46465V7.28677C9.92173 7.41812 10.2049 7.5396 10.6656 7.60585L12.7152 8.19365C13.3568 8.37764 13.996 7.89599 13.996 7.22853V2.56073C13.996 1.90039 13.3695 1.41986 12.7318 1.59103L10.6656 2.14557C10.2049 2.21182 9.92173 2.3333 9.92173 2.46465Z" stroke="#2260FF"/>
</svg>
