<svg width="40" height="40" viewBox="0 0 40 40" fill="none" xmlns="http://www.w3.org/2000/svg">
<circle cx="20" cy="20" r="20" fill="#CAD6FF"/>
<path d="M25.8979 17.0901L25.8979 14.6814C25.8979 11.833 23.4858 9.52393 20.5104 9.52393C17.535 9.52393 15.1229 11.833 15.1229 14.6814V17.0901M20.3565 23.2012C21.0366 23.2012 21.5879 22.68 21.5879 22.0372C21.5879 21.3943 21.0366 20.8731 20.3565 20.8731C19.6764 20.8731 19.125 21.3943 19.125 22.0372C19.125 22.68 19.6764 23.2012 20.3565 23.2012ZM20.3565 23.2012V27.1297M12.9679 30.4763H27.9845C28.8346 30.4763 29.5238 29.8249 29.5238 29.0213V18.5451C29.5238 17.7415 28.8346 17.0901 27.9845 17.0901H12.9679C12.1177 17.0901 11.4286 17.7415 11.4286 18.5451V29.0213C11.4286 29.8249 12.1177 30.4763 12.9679 30.4763Z" stroke="#2260FF" stroke-width="2" stroke-linecap="round"/>
</svg>
