<svg width="14" height="20" viewBox="0 0 14 20" fill="none" xmlns="http://www.w3.org/2000/svg">
<path d="M7.82505 17.3679L13.4709 14.1833M4.73154 5.2799L10.8499 15.6617M7.2775 3.43128C7.37031 3.59122 7.31002 3.79874 7.14284 3.89477L2.07241 6.8074C1.90523 6.90343 1.69446 6.85163 1.60165 6.69169C-0.490843 3.08569 0.870634 1.70576 2.08689 1.0071C3.30314 0.30844 5.18152 -0.180725 7.2775 3.43128ZM7.44555 3.72088L13.3846 13.9556C13.4569 14.0802 13.492 14.223 13.4842 14.3667C13.3863 16.1805 13.1361 17.7699 12.9702 18.6726C12.8914 19.1012 12.4575 19.3528 12.044 19.2091C11.1711 18.9058 9.65371 18.3328 8.01697 17.5074C7.88784 17.4423 7.78098 17.3405 7.7086 17.2158L1.7697 6.98128L7.44555 3.72088Z" stroke="#CAD6FF" stroke-linecap="round"/>
</svg>
