<svg width="13" height="14" viewBox="0 0 13 14" fill="none" xmlns="http://www.w3.org/2000/svg">
<path d="M7.90917 1.51688C11.1563 1.7252 13.2311 5.31344 11.8785 8.38134M8.35261 3.38977C9.88005 3.57352 10.9416 5.40936 10.3834 6.90182M5.97907 2.97218L4.71256 0.781894C4.56997 0.535297 4.25201 0.451496 4.00664 0.597219C0.312485 2.79114 -0.0386312 3.84658 1.10281 5.78317L4.64657 11.9117C5.75557 13.867 6.84657 14.0911 10.5966 11.9938C10.8456 11.8545 10.9319 11.5376 10.7893 11.291L9.52283 9.10073C9.33821 8.78146 9.08929 8.79724 8.79655 8.88085C8.50382 8.96446 7.40724 9.68174 7.00753 9.91216C6.60782 10.1426 3.69785 4.92577 4.01762 4.74144C4.33738 4.55711 5.58776 3.92145 5.80665 3.71013C6.02554 3.49881 6.16369 3.29146 5.97907 2.97218Z" stroke="#2260FF" stroke-linecap="round"/>
</svg>
