<svg width="15" height="23" viewBox="0 0 15 23" fill="none" xmlns="http://www.w3.org/2000/svg">
<path d="M3.31135 21.4667C2.88793 21.4667 2.54468 21.8099 2.54468 22.2333C2.54468 22.6568 2.88793 23 3.31135 23L3.31135 21.4667ZM11.7936 23C12.217 23 12.5603 22.6567 12.5603 22.2333C12.5603 21.8099 12.217 21.4667 11.7936 21.4667L11.7936 23ZM3.87683 4.24566H3.11017V4.24566L3.87683 4.24566ZM10.9454 4.24566H10.1787V4.24566L10.9454 4.24566ZM10.9454 12.197H11.7121V12.197L10.9454 12.197ZM3.87684 12.197H4.64351V12.197L3.87684 12.197ZM7.41112 15.676L7.41112 16.4426H7.41112V15.676ZM7.41111 0.766667V0V0.766667ZM0.766667 10.803V10.0364C0.343249 10.0364 1.15765e-06 10.3796 7.92079e-07 10.803L0.766667 10.803ZM0.766667 11.7201H0H0.766667ZM14.0556 11.7201L13.2889 11.7201V11.7201H14.0556ZM14.0556 10.803L14.8222 10.803C14.8222 10.5997 14.7414 10.4047 14.5977 10.2609C14.4539 10.1171 14.2589 10.0364 14.0556 10.0364V10.803ZM6.78582 22.2333C6.78582 22.6567 7.12906 23 7.55248 23C7.9759 23 8.31915 22.6567 8.31915 22.2333H6.78582ZM8.31915 18.6091C8.31915 18.1857 7.9759 17.8424 7.55248 17.8424C7.12906 17.8424 6.78582 18.1857 6.78582 18.6091H8.31915ZM3.31135 23L11.7936 23L11.7936 21.4667L3.31135 21.4667L3.31135 23ZM7.41112 14.9093C5.87117 14.9093 4.64351 13.6836 4.64351 12.197H3.11018C3.11018 14.5531 5.04721 16.4426 7.41112 16.4426L7.41112 14.9093ZM10.1787 12.197C10.1787 13.6836 8.95106 14.9093 7.41112 14.9093V16.4426C9.77502 16.4426 11.7121 14.5531 11.7121 12.197H10.1787ZM7.41111 1.53333C8.95105 1.53333 10.1787 2.75903 10.1787 4.24566L11.712 4.24566C11.712 1.8895 9.77501 -1.82788e-07 7.41111 0V1.53333ZM4.6435 4.24566C4.6435 2.75903 5.87116 1.53333 7.41111 1.53333V0C5.0472 1.82787e-07 3.11017 1.8895 3.11017 4.24566H4.6435ZM4.64351 12.197L4.6435 4.24566L3.11017 4.24566L3.11018 12.197L4.64351 12.197ZM10.1787 4.24566L10.1787 12.197L11.7121 12.197L11.712 4.24566L10.1787 4.24566ZM7.92079e-07 10.803L0 11.7201L1.53333 11.7201L1.53333 10.803L7.92079e-07 10.803ZM7.41111 19.3758C11.53 19.3758 14.8222 15.9218 14.8222 11.7201H13.2889C13.2889 15.1277 10.6314 17.8424 7.41111 17.8424V19.3758ZM0 11.7201C0 15.9218 3.29218 19.3758 7.41111 19.3758V17.8424C4.19079 17.8424 1.53333 15.1277 1.53333 11.7201H0ZM14.8222 11.7201L14.8222 10.803L13.2889 10.803L13.2889 11.7201L14.8222 11.7201ZM10.9454 11.5697H14.0556V10.0364H10.9454V11.5697ZM0.766667 11.5697H4.08889V10.0364H0.766667V11.5697ZM8.31915 22.2333V18.6091H6.78582V22.2333H8.31915Z" fill="#2260FF"/>
</svg>
