<svg width="13" height="13" viewBox="0 0 13 13" fill="none" xmlns="http://www.w3.org/2000/svg">
<path d="M5.26712 0.5V0C4.99098 0 4.76712 0.223858 4.76712 0.5L5.26712 0.5ZM7.73288 0.5H8.23288C8.23288 0.223858 8.00902 0 7.73288 0V0.5ZM7.73288 12.5V13C8.00902 13 8.23288 12.7761 8.23288 12.5H7.73288ZM5.26712 12.5H4.76712C4.76712 12.7761 4.99098 13 5.26712 13V12.5ZM12.5 5.26712H13C13 4.99098 12.7761 4.76712 12.5 4.76712V5.26712ZM12.5 7.73288V8.23288C12.6326 8.23288 12.7598 8.1802 12.8536 8.08643C12.9473 7.99266 13 7.86549 13 7.73288H12.5ZM0.5 7.73288H0C0 8.00902 0.223857 8.23288 0.5 8.23288L0.5 7.73288ZM0.5 5.26712L0.5 4.76712C0.367392 4.76712 0.240215 4.8198 0.146447 4.91357C0.0526784 5.00734 0 5.13451 0 5.26712H0.5ZM9.87086 1.38558L10.2244 1.03203C10.0299 0.837561 9.71493 0.836656 9.51935 1.03L9.87086 1.38558ZM11.6144 3.12913L11.97 3.48065C12.1633 3.28507 12.1624 2.97005 11.968 2.77558L11.6144 3.12913ZM3.12913 11.6144L2.77558 11.968C2.97013 12.1625 3.28532 12.1633 3.48087 11.9698L3.12913 11.6144ZM1.38558 9.87086L1.03022 9.51913C0.836668 9.71468 0.837478 10.0299 1.03203 10.2244L1.38558 9.87086ZM11.6144 9.87086L11.968 10.2244C12.1607 10.0317 12.1636 9.72023 11.9745 9.52398L11.6144 9.87086ZM9.87087 11.6144L9.5144 11.965C9.60789 12.0601 9.73547 12.1139 9.8688 12.1144C10.0021 12.115 10.1301 12.0622 10.2244 11.968L9.87087 11.6144ZM1.38559 3.12913L1.03203 2.77558C0.938264 2.86935 0.885585 2.99653 0.885585 3.12913C0.885585 3.26174 0.938264 3.38892 1.03203 3.48269L1.38559 3.12913ZM3.12914 1.38558L3.48269 1.03203C3.28743 0.836768 2.97085 0.836768 2.77558 1.03203L3.12914 1.38558ZM10.4769 7.73288V7.23288H10.1179L10.0031 7.57297L10.4769 7.73288ZM10.1883 8.39041L9.74984 8.15006L9.57309 8.47249L9.82819 8.7373L10.1883 8.39041ZM8.39041 10.1092L8.74688 9.75863L8.49394 9.50146L8.17013 9.66038L8.39041 10.1092ZM7.73288 10.3641L7.59313 9.88405L7.23288 9.98892V10.3641H7.73288ZM5.26712 10.3125H5.76712V9.95354L5.42703 9.83874L5.26712 10.3125ZM4.69178 10.0677L4.9221 9.62396L4.59887 9.45621L4.34005 9.71238L4.69178 10.0677ZM2.93225 8.30822L3.28762 8.65995L3.54379 8.40113L3.37604 8.0779L2.93225 8.30822ZM2.68752 7.73288L3.16126 7.57297L3.04646 7.23288H2.68752L2.68752 7.73288ZM2.63587 5.26712V5.76712H3.01108L3.11595 5.40687L2.63587 5.26712ZM2.88265 4.6262L3.3325 4.84446L3.48784 4.52429L3.23621 4.27265L2.88265 4.6262ZM4.57465 2.83109L4.22109 3.18465L4.48891 3.45247L4.81925 3.26718L4.57465 2.83109ZM5.26712 2.52313L5.42703 2.99687L5.76712 2.88208V2.52313H5.26712ZM7.73288 2.47149H7.23288V2.8467L7.59313 2.95156L7.73288 2.47149ZM8.4726 2.76787L8.24228 3.21166L8.5653 3.3793L8.82412 3.12345L8.4726 2.76787ZM10.2321 4.5274L9.87655 4.17588L9.6207 4.4347L9.78834 4.75772L10.2321 4.5274ZM10.5285 5.26712L10.0484 5.40687L10.1533 5.76712H10.5285V5.26712ZM5.26712 1H7.73288V0H5.26712V1ZM7.73288 12H5.26712V13H7.73288V12ZM12 5.26712V7.73288H13V5.26712H12ZM1 7.73288V5.26712H0V7.73288H1ZM9.51731 1.73914L11.2609 3.48269L11.968 2.77558L10.2244 1.03203L9.51731 1.73914ZM3.48269 11.2609L1.73914 9.51731L1.03203 10.2244L2.77558 11.968L3.48269 11.2609ZM11.2609 9.51731L9.51731 11.2609L10.2244 11.968L11.968 10.2244L11.2609 9.51731ZM1.73914 3.48269L3.48269 1.73914L2.77558 1.03203L1.03203 2.77558L1.73914 3.48269ZM10.0031 7.57297C9.93535 7.77376 9.85035 7.96671 9.74984 8.15006L10.6267 8.63076C10.7552 8.39647 10.8639 8.14973 10.9506 7.89278L10.0031 7.57297ZM8.17013 9.66038C7.98601 9.75074 7.79314 9.82583 7.59313 9.88405L7.87262 10.8442C8.12859 10.7697 8.37532 10.6736 8.6107 10.5581L8.17013 9.66038ZM5.42703 9.83874C5.2524 9.7798 5.08371 9.70783 4.9221 9.62396L4.46146 10.5115C4.66801 10.6187 4.88375 10.7108 5.10722 10.7862L5.42703 9.83874ZM3.37604 8.0779C3.29217 7.91629 3.2202 7.7476 3.16126 7.57297L2.21378 7.89278C2.2892 8.11625 2.38126 8.33199 2.48846 8.53854L3.37604 8.0779ZM3.11595 5.40687C3.17263 5.21213 3.24532 5.02416 3.3325 4.84446L2.4328 4.40795C2.32133 4.6377 2.22834 4.87816 2.1558 5.12738L3.11595 5.40687ZM4.81925 3.26718C5.01173 3.15921 5.215 3.06844 5.42703 2.99687L5.10722 2.04939C4.83589 2.14097 4.57595 2.25708 4.33004 2.39501L4.81925 3.26718ZM7.59313 2.95156C7.81943 3.01744 8.0366 3.10491 8.24228 3.21166L8.70292 2.32407C8.44003 2.18764 8.16224 2.07572 7.87262 1.99142L7.59313 2.95156ZM9.78834 4.75772C9.89509 4.9634 9.98256 5.18057 10.0484 5.40687L11.0086 5.12738C10.9243 4.83776 10.8124 4.55997 10.6759 4.29708L9.78834 4.75772ZM5.76712 2.52313V0.5H4.76712V2.52313H5.76712ZM7.23288 0.5V2.47149H8.23288V0.5H7.23288ZM2.77558 1.73914L4.22109 3.18465L4.9282 2.47754L3.48269 1.03203L2.77558 1.73914ZM3.23621 4.27265L1.73914 2.77558L1.03203 3.48269L2.5291 4.97976L3.23621 4.27265ZM8.82412 3.12345L10.2224 1.74116L9.51935 1.03L8.12109 2.41229L8.82412 3.12345ZM11.2588 2.77762L9.87655 4.17588L10.5877 4.87891L11.97 3.48065L11.2588 2.77762ZM10.5285 5.76712L12.5 5.76712V4.76712L10.5285 4.76712V5.76712ZM12.5 7.23288L10.4769 7.23288V8.23288L12.5 8.23288V7.23288ZM9.82819 8.7373L11.2543 10.2177L11.9745 9.52398L10.5484 8.04353L9.82819 8.7373ZM10.2273 11.2638L8.74688 9.75863L8.03394 10.4599L9.5144 11.965L10.2273 11.2638ZM7.23288 10.3641V12.5H8.23288V10.3641H7.23288ZM5.76712 12.5V10.3125H4.76712V12.5H5.76712ZM4.34005 9.71238L2.7774 11.2591L3.48087 11.9698L5.04351 10.4231L4.34005 9.71238ZM1.74095 10.2226L3.28762 8.65995L2.57688 7.95649L1.03022 9.51913L1.74095 10.2226ZM2.68752 7.23288L0.5 7.23288L0.5 8.23288L2.68752 8.23288L2.68752 7.23288ZM0.5 5.76712L2.63587 5.76712V4.76712L0.5 4.76712L0.5 5.76712ZM7.71273 6.23558C7.8485 6.91402 7.41264 7.54771 6.74445 7.66302L6.91451 8.64845C8.14406 8.43626 8.93811 7.26272 8.69329 6.03936L7.71273 6.23558ZM6.74445 7.66302C6.06575 7.78015 5.39488 7.32074 5.25713 6.63237L4.27657 6.8286C4.51939 8.04203 5.69546 8.85884 6.91451 8.64845L6.74445 7.66302ZM5.25713 6.63237C5.12136 5.95393 5.55722 5.32025 6.22541 5.20493L6.05535 4.2195C4.8258 4.4317 4.03175 5.60523 4.27657 6.8286L5.25713 6.63237ZM6.22541 5.20493C6.90411 5.0878 7.57498 5.54722 7.71273 6.23558L8.69329 6.03936C8.45047 4.82592 7.2744 4.00912 6.05535 4.2195L6.22541 5.20493Z" fill="white"/>
</svg>
