<svg width="40" height="40" viewBox="0 0 40 40" fill="none" xmlns="http://www.w3.org/2000/svg">
<circle cx="20" cy="20" r="20" fill="#CAD6FF"/>
<path d="M25.4965 13.934C25.8044 17.1365 23.7169 19.936 20.834 20.1868C17.9511 20.4376 15.3645 18.0447 15.0566 14.8421C14.7488 11.6396 16.8362 8.84011 19.7191 8.58933C22.602 8.33856 25.1887 10.7314 25.4965 13.934Z" stroke="#2260FF" stroke-width="2" stroke-linecap="round"/>
<path d="M29.5238 29.3683C29.5238 26.045 29.0068 22.7218 23.3197 22.7218H17.3742C13.4966 22.7218 11.4286 24.1065 11.4286 29.3683C11.4286 29.9801 11.8915 30.476 12.4626 30.476L28.4898 30.4761C29.0609 30.4761 29.5238 29.9801 29.5238 29.3683Z" stroke="#2260FF" stroke-width="2" stroke-linecap="round"/>
</svg>
